<svg xmlns="http://www.w3.org/2000/svg" xmlns:xlink="http://www.w3.org/1999/xlink" width="200" zoomAndPan="magnify" viewBox="0 0 150 74.999997" height="100" preserveAspectRatio="xMidYMid meet" version="1.0"><defs><g/></defs><g fill="#7ed957" fill-opacity="1"><g transform="translate(-0.887129, 56.508821)"><g><path d="M 2.421875 0 L 2.421875 -5.875 L 17.46875 -25.984375 L 3.640625 -25.984375 L 3.640625 -31.984375 L 26.625 -31.984375 L 26.625 -26.046875 L 11.671875 -6.0625 L 28.078125 -6.0625 L 28.078125 0 Z M 2.421875 0 "/></g></g></g><g fill="#7ed957" fill-opacity="1"><g transform="translate(31.432877, 56.508821)"><g><path d="M 34.609375 -16.015625 C 34.609375 -10.835938 33.171875 -6.773438 30.296875 -3.828125 C 27.421875 -0.878906 23.441406 0.59375 18.359375 0.59375 C 13.367188 0.59375 9.453125 -0.882812 6.609375 -3.84375 C 3.773438 -6.800781 2.359375 -10.859375 2.359375 -16.015625 C 2.359375 -21.160156 3.773438 -25.207031 6.609375 -28.15625 C 9.453125 -31.101562 13.425781 -32.578125 18.53125 -32.578125 C 23.75 -32.578125 27.734375 -31.148438 30.484375 -28.296875 C 33.234375 -25.453125 34.609375 -21.359375 34.609375 -16.015625 Z M 25.921875 -16.015625 C 25.921875 -19.816406 25.300781 -22.570312 24.0625 -24.28125 C 22.820312 -26 21.019531 -26.859375 18.65625 -26.859375 C 13.601562 -26.859375 11.078125 -23.242188 11.078125 -16.015625 C 11.078125 -12.453125 11.691406 -9.738281 12.921875 -7.875 C 14.160156 -6.007812 15.941406 -5.078125 18.265625 -5.078125 C 23.367188 -5.078125 25.921875 -8.722656 25.921875 -16.015625 Z M 25.921875 -16.015625 "/></g></g></g><g fill="#7ed957" fill-opacity="1"><g transform="translate(70.461313, 56.508821)"><g><path d="M 13.984375 -26.359375 L 13.984375 0 L 5.703125 0 L 5.703125 -26.359375 L 1.03125 -26.359375 L 1.03125 -31.984375 L 5.703125 -31.984375 L 5.703125 -35.3125 C 5.703125 -38.21875 6.46875 -40.367188 8 -41.765625 C 9.539062 -43.160156 11.878906 -43.859375 15.015625 -43.859375 C 16.566406 -43.859375 18.320312 -43.703125 20.28125 -43.390625 L 20.28125 -38.03125 C 19.46875 -38.21875 18.660156 -38.3125 17.859375 -38.3125 C 16.429688 -38.3125 15.425781 -38.03125 14.84375 -37.46875 C 14.269531 -36.90625 13.984375 -35.910156 13.984375 -34.484375 L 13.984375 -31.984375 L 20.28125 -31.984375 L 20.28125 -26.359375 Z M 13.984375 -26.359375 "/></g></g></g><g fill="#7ed957" fill-opacity="1"><g transform="translate(92.674348, 56.508821)"><g><path d="M 13.984375 -26.359375 L 13.984375 0 L 5.703125 0 L 5.703125 -26.359375 L 1.03125 -26.359375 L 1.03125 -31.984375 L 5.703125 -31.984375 L 5.703125 -35.3125 C 5.703125 -38.21875 6.46875 -40.367188 8 -41.765625 C 9.539062 -43.160156 11.878906 -43.859375 15.015625 -43.859375 C 16.566406 -43.859375 18.320312 -43.703125 20.28125 -43.390625 L 20.28125 -38.03125 C 19.46875 -38.21875 18.660156 -38.3125 17.859375 -38.3125 C 16.429688 -38.3125 15.425781 -38.03125 14.84375 -37.46875 C 14.269531 -36.90625 13.984375 -35.910156 13.984375 -34.484375 L 13.984375 -31.984375 L 20.28125 -31.984375 L 20.28125 -26.359375 Z M 13.984375 -26.359375 "/></g></g></g><g fill="#7ed957" fill-opacity="1"><g transform="translate(114.887378, 56.508821)"><g><path d="M 8.359375 12.5625 C 6.367188 12.5625 4.628906 12.429688 3.140625 12.171875 L 3.140625 6.265625 C 4.179688 6.421875 5.132812 6.5 6 6.5 C 7.175781 6.5 8.15625 6.3125 8.9375 5.9375 C 9.71875 5.5625 10.414062 4.941406 11.03125 4.078125 C 11.65625 3.210938 12.351562 1.742188 13.125 -0.328125 L 0.46875 -31.984375 L 9.25 -31.984375 L 14.28125 -17 C 15.0625 -14.84375 16.054688 -11.550781 17.265625 -7.125 L 18 -9.9375 L 19.921875 -16.875 L 24.65625 -31.984375 L 33.34375 -31.984375 L 20.6875 1.6875 C 18.988281 5.78125 17.226562 8.613281 15.40625 10.1875 C 13.582031 11.769531 11.234375 12.5625 8.359375 12.5625 Z M 8.359375 12.5625 "/></g></g></g><g fill="#7ed957" fill-opacity="1"><g transform="translate(138.136033, 21.180343)"><g><path d="M 0.625 -5.296875 C 0.625 -6.273438 0.847656 -7.179688 1.296875 -8.015625 C 1.753906 -8.859375 2.382812 -9.519531 3.1875 -10 C 3.988281 -10.476562 4.851562 -10.71875 5.78125 -10.71875 C 6.707031 -10.71875 7.570312 -10.476562 8.375 -10 C 9.175781 -9.519531 9.800781 -8.859375 10.25 -8.015625 C 10.707031 -7.179688 10.9375 -6.273438 10.9375 -5.296875 C 10.9375 -4.304688 10.707031 -3.390625 10.25 -2.546875 C 9.789062 -1.710938 9.160156 -1.054688 8.359375 -0.578125 C 7.566406 -0.0976562 6.707031 0.140625 5.78125 0.140625 C 4.84375 0.140625 3.972656 -0.0976562 3.171875 -0.578125 C 2.378906 -1.066406 1.753906 -1.726562 1.296875 -2.5625 C 0.847656 -3.40625 0.625 -4.316406 0.625 -5.296875 Z M 10.046875 -5.296875 C 10.046875 -6.097656 9.863281 -6.84375 9.5 -7.53125 C 9.132812 -8.226562 8.617188 -8.78125 7.953125 -9.1875 C 7.296875 -9.601562 6.570312 -9.8125 5.78125 -9.8125 C 5.007812 -9.8125 4.289062 -9.613281 3.625 -9.21875 C 2.96875 -8.820312 2.453125 -8.273438 2.078125 -7.578125 C 1.703125 -6.878906 1.515625 -6.117188 1.515625 -5.296875 C 1.515625 -4.472656 1.703125 -3.710938 2.078125 -3.015625 C 2.453125 -2.316406 2.96875 -1.765625 3.625 -1.359375 C 4.289062 -0.953125 5.007812 -0.75 5.78125 -0.75 C 6.550781 -0.75 7.269531 -0.953125 7.9375 -1.359375 C 8.601562 -1.773438 9.117188 -2.332031 9.484375 -3.03125 C 9.859375 -3.726562 10.046875 -4.484375 10.046875 -5.296875 Z M 4.734375 -4.75 L 4.734375 -2.296875 L 3.640625 -2.296875 L 3.640625 -8.46875 L 5.6875 -8.46875 C 6.414062 -8.46875 6.988281 -8.300781 7.40625 -7.96875 C 7.832031 -7.632812 8.046875 -7.164062 8.046875 -6.5625 C 8.046875 -6.019531 7.769531 -5.597656 7.21875 -5.296875 C 7.507812 -5.140625 7.710938 -4.925781 7.828125 -4.65625 C 7.953125 -4.394531 8.015625 -4.066406 8.015625 -3.671875 C 8.015625 -3.273438 8.019531 -2.992188 8.03125 -2.828125 C 8.050781 -2.660156 8.085938 -2.519531 8.140625 -2.40625 L 8.140625 -2.296875 L 7.015625 -2.296875 C 6.953125 -2.460938 6.921875 -2.929688 6.921875 -3.703125 C 6.921875 -4.066406 6.835938 -4.332031 6.671875 -4.5 C 6.515625 -4.664062 6.253906 -4.75 5.890625 -4.75 Z M 4.734375 -5.71875 L 5.71875 -5.71875 C 6.082031 -5.71875 6.378906 -5.796875 6.609375 -5.953125 C 6.835938 -6.109375 6.953125 -6.3125 6.953125 -6.5625 C 6.953125 -6.894531 6.863281 -7.132812 6.6875 -7.28125 C 6.519531 -7.425781 6.210938 -7.5 5.765625 -7.5 L 4.734375 -7.5 Z M 4.734375 -5.71875 "/></g></g></g></svg>